<svg xmlns="http://www.w3.org/2000/svg" viewBox="0 0 400 80" role="img" aria-label="Burn Vector" color="#6AA8D6">
  <g fill="currentColor">
    <!-- Thrust arrow mark: stem plus pointed head angled forward/up-right -->
    <path d="M6 52 L40 52 L40 62 L6 62 Z"/>
    <path d="M44 38 L64 28 L64 72 Z"/>
  </g>
  <g fill="currentColor" font-family="ui-monospace, 'SF Mono', 'Fira Code', monospace" font-weight="700" letter-spacing="2">
    <text x="84" y="44" font-size="26">BURN</text>
    <text x="84" y="72" font-size="26">VECTOR</text>
  </g>
  <!-- Single tick marks suggesting a HUD readout, right-aligned -->
  <g fill="currentColor" opacity="0.7">
    <rect x="236" y="38" width="2" height="10"/>
    <rect x="244" y="38" width="2" height="6"/>
    <rect x="252" y="38" width="2" height="10"/>
    <rect x="260" y="38" width="2" height="6"/>
    <rect x="268" y="38" width="2" height="10"/>
    <rect x="276" y="38" width="2" height="6"/>
    <rect x="284" y="38" width="2" height="10"/>
    <rect x="292" y="38" width="2" height="6"/>
    <rect x="300" y="38" width="2" height="10"/>
    <rect x="308" y="38" width="2" height="6"/>
    <rect x="316" y="38" width="2" height="10"/>
    <rect x="324" y="38" width="2" height="6"/>
    <rect x="332" y="38" width="2" height="10"/>
    <rect x="340" y="38" width="2" height="6"/>
    <rect x="348" y="38" width="2" height="10"/>
    <rect x="356" y="38" width="2" height="6"/>
    <rect x="364" y="38" width="2" height="10"/>
    <rect x="372" y="38" width="2" height="6"/>
    <rect x="380" y="38" width="2" height="10"/>
    <rect x="388" y="38" width="2" height="6"/>
  </g>
</svg>
